<?xml version="1.0" standalone="no"?>
<!DOCTYPE svg PUBLIC "-//W3C//DTD SVG 20010904//EN"
 "http://www.w3.org/TR/2001/REC-SVG-20010904/DTD/svg10.dtd">
<svg version="1.0" xmlns="http://www.w3.org/2000/svg"
 width="370.000000pt" height="109.000000pt" viewBox="0 0 370.000000 109.000000"
 preserveAspectRatio="xMidYMid meet">
<metadata>
Created by potrace 1.16, written by Peter Selinger 2001-2019
</metadata>
<g transform="translate(0.000000,109.000000) scale(0.100000,-0.100000)"
fill="#000000" stroke="none">
<path d="M438 771 c-119 -5 -151 -9 -164 -23 -29 -29 -11 -48 45 -48 79 0 81
-5 81 -195 l0 -163 24 -6 c33 -8 55 2 61 28 3 11 6 89 8 171 l2 150 59 5 c55
5 60 7 67 33 7 26 -11 60 -29 55 -4 -1 -73 -4 -154 -7z"/>
<path d="M1873 774 c-18 -8 -18 -415 -1 -432 16 -16 53 -15 67 2 8 9 11 77 9
222 l-3 209 -30 2 c-16 1 -36 0 -42 -3z"/>
<path d="M735 656 c-18 -8 -38 -10 -50 -5 -11 4 -30 8 -43 8 l-23 1 3 -157 3
-158 28 -3 c47 -6 57 12 57 97 0 103 12 124 74 133 47 6 106 -10 106 -29 0 -4
-12 -24 -27 -46 -39 -56 -37 -101 6 -139 32 -28 37 -30 85 -23 28 4 77 7 109
7 l57 -1 0 88 c0 49 3 108 6 133 6 42 4 46 -27 69 -45 32 -142 38 -206 14 -44
-17 -46 -17 -83 4 -44 24 -37 24 -75 7z"/>
<path d="M1178 653 c-29 -7 -31 -39 -5 -80 14 -21 37 -74 52 -118 37 -111 44
-119 102 -116 25 1 57 56 87 148 10 29 29 69 42 89 27 39 28 61 3 77 -34 21
-68 0 -94 -61 -47 -109 -56 -113 -85 -35 -36 99 -49 110 -102 96z"/>
<path d="M1573 644 c-17 -9 -39 -24 -48 -34 -22 -25 -32 -135 -16 -183 31 -94
161 -128 239 -62 31 26 45 78 43 158 -2 108 -116 171 -218 121z"/>
</g>
</svg>
